<?xml version="1.0" encoding="UTF-8"?>
<svg xmlns="http://www.w3.org/2000/svg" xmlns:xlink="http://www.w3.org/1999/xlink" width="32px" height="32px" viewBox="0 0 30 30" version="1.1">
<g id="surface1">
<path style=" stroke:none;fill-rule:nonzero;fill:rgb(29.411765%,29.411765%,29.411765%);fill-opacity:1;" d="M 3.820312 28.726562 C 7.089844 29.558594 10.957031 30 15.003906 30 C 19.042969 30 22.902344 29.5625 26.171875 28.730469 C 27.679688 28.347656 28.640625 26.847656 28.363281 25.316406 C 28.308594 25 28.234375 24.683594 28.148438 24.355469 C 28.074219 24.066406 28 23.832031 27.914062 23.609375 C 27.839844 23.378906 27.746094 23.136719 27.628906 22.867188 C 27.167969 21.773438 26.570312 20.859375 25.953125 20.296875 C 25.371094 19.757812 24 19.039062 21.238281 17.632812 L 21.164062 17.589844 C 20.707031 17.355469 20.34375 17.144531 20.0625 16.960938 C 20.050781 16.957031 20.039062 16.949219 20.027344 16.941406 C 20.289062 16.605469 20.578125 16.15625 20.757812 15.636719 L 20.773438 15.59375 L 20.792969 15.527344 C 20.863281 15.324219 20.925781 15.125 20.988281 14.925781 C 21.703125 14.507812 22.203125 13.761719 22.527344 12.921875 C 22.53125 12.917969 22.53125 12.914062 22.535156 12.910156 C 22.761719 12.320312 22.90625 11.683594 22.96875 11.082031 C 23.019531 10.640625 22.976562 10.066406 22.648438 9.464844 C 22.671875 9.382812 22.695312 9.285156 22.71875 9.1875 C 22.777344 8.941406 22.824219 8.65625 22.871094 8.328125 C 22.90625 8.0625 22.921875 7.765625 22.90625 7.457031 C 22.886719 6.882812 22.765625 6.292969 22.558594 5.75 C 22.367188 5.238281 22.101562 4.777344 21.773438 4.378906 L 21.691406 4.285156 L 21.679688 4.273438 C 21.515625 4.078125 21.34375 3.90625 21.179688 3.753906 C 20.714844 3.304688 20.117188 2.8125 19.464844 2.488281 C 18.398438 0.949219 16.964844 0.136719 15.109375 0.0117188 L 15.0625 0.0117188 C 14.996094 0.0078125 14.929688 0.0078125 14.855469 0.00390625 L 14.746094 0 L 14.65625 0 C 12.683594 0 10.085938 1.445312 8.730469 3.292969 L 8.355469 3.8125 L 8.355469 3.878906 C 8.339844 3.898438 8.328125 3.917969 8.316406 3.9375 C 8.171875 4.203125 8.023438 4.480469 7.886719 4.765625 C 7.65625 5.261719 7.496094 5.695312 7.386719 6.125 C 7.3125 6.375 7.261719 6.632812 7.234375 6.894531 C 7.148438 7.503906 7.15625 8.132812 7.257812 8.851562 L 7.277344 9.003906 C 7.296875 9.132812 7.316406 9.261719 7.339844 9.394531 C 7.039062 9.953125 6.996094 10.5 7.039062 10.933594 C 7.242188 12.90625 7.9375 14.300781 8.980469 14.921875 C 8.992188 14.964844 9.007812 15.007812 9.023438 15.046875 C 9.054688 15.136719 9.089844 15.242188 9.125 15.355469 L 9.199219 15.582031 L 9.210938 15.601562 L 9.210938 15.609375 L 9.214844 15.625 C 9.371094 16.074219 9.617188 16.519531 9.9375 16.925781 C 9.945312 16.933594 9.949219 16.941406 9.953125 16.949219 C 9.667969 17.128906 9.296875 17.351562 8.824219 17.59375 L 8.726562 17.644531 C 5.984375 19.046875 4.628906 19.761719 4.042969 20.300781 C 3.433594 20.847656 2.835938 21.761719 2.363281 22.871094 L 2.359375 22.882812 L 2.355469 22.890625 C 2.269531 23.09375 2.167969 23.339844 2.074219 23.613281 C 1.984375 23.878906 1.910156 24.121094 1.847656 24.359375 C 1.765625 24.648438 1.695312 24.960938 1.632812 25.316406 C 1.363281 26.878906 2.304688 28.335938 3.820312 28.726562 Z M 3.765625 25.699219 C 3.820312 25.398438 3.875 25.152344 3.941406 24.917969 C 3.984375 24.734375 4.050781 24.539062 4.125 24.324219 C 4.195312 24.109375 4.277344 23.910156 4.355469 23.722656 C 4.757812 22.777344 5.210938 22.164062 5.503906 21.898438 C 5.941406 21.5 8.03125 20.433594 9.714844 19.574219 L 9.808594 19.523438 C 11.042969 18.890625 11.835938 18.296875 12.105469 18.046875 L 12.167969 17.988281 L 12.167969 16.011719 L 12.039062 15.964844 C 11.976562 15.941406 11.90625 15.890625 11.839844 15.820312 L 11.757812 15.734375 C 11.539062 15.484375 11.355469 15.183594 11.265625 14.917969 L 11.191406 14.699219 C 11.144531 14.558594 11.101562 14.421875 11.0625 14.308594 C 10.878906 13.824219 10.808594 13.378906 10.796875 13.261719 L 10.773438 13.023438 L 10.546875 13.089844 C 10.464844 13.109375 10.394531 13.121094 10.328125 13.121094 C 9.683594 13.121094 9.292969 11.652344 9.195312 10.726562 C 9.164062 10.417969 9.34375 10.257812 9.558594 10.09375 C 9.589844 10.070312 9.617188 10.046875 9.640625 10.03125 L 9.769531 9.925781 L 9.691406 9.785156 C 9.660156 9.722656 9.621094 9.628906 9.578125 9.496094 L 9.574219 9.433594 L 9.554688 9.417969 C 9.503906 9.171875 9.457031 8.925781 9.421875 8.679688 C 9.332031 8.097656 9.320312 7.613281 9.386719 7.152344 C 9.402344 7 9.433594 6.847656 9.480469 6.691406 C 9.550781 6.390625 9.671875 6.070312 9.847656 5.691406 C 9.953125 5.472656 10.078125 5.238281 10.214844 4.988281 C 10.292969 4.847656 10.382812 4.710938 10.480469 4.578125 L 10.519531 4.519531 C 11.566406 3.132812 13.527344 2.167969 14.667969 2.167969 L 14.964844 2.175781 C 16.355469 2.269531 17.230469 2.863281 17.984375 4.214844 L 18.042969 4.3125 L 18.15625 4.3125 C 18.390625 4.3125 19.042969 4.703125 19.695312 5.328125 C 19.824219 5.453125 19.964844 5.597656 20.113281 5.769531 C 20.28125 5.976562 20.425781 6.230469 20.53125 6.515625 C 20.65625 6.84375 20.730469 7.199219 20.742188 7.542969 C 20.746094 7.621094 20.746094 7.695312 20.742188 7.765625 C 20.742188 7.789062 20.742188 7.8125 20.738281 7.835938 C 20.734375 7.902344 20.730469 7.972656 20.722656 8.03125 C 20.6875 8.292969 20.648438 8.523438 20.605469 8.714844 C 20.539062 9.003906 20.46875 9.214844 20.410156 9.386719 L 20.382812 9.472656 C 20.339844 9.605469 20.300781 9.71875 20.265625 9.800781 L 20.21875 9.949219 L 20.335938 10.042969 C 20.503906 10.179688 20.855469 10.464844 20.8125 10.855469 C 20.75 11.460938 20.351562 13.121094 19.625 13.121094 C 19.582031 13.121094 19.511719 13.117188 19.421875 13.089844 L 19.242188 13.035156 L 19.234375 13.035156 L 19.222656 13.03125 L 19.171875 13.226562 C 19.167969 13.246094 19.164062 13.261719 19.160156 13.300781 C 19.132812 13.472656 18.96875 14.179688 18.742188 14.824219 L 18.707031 14.929688 C 18.617188 15.191406 18.4375 15.488281 18.191406 15.761719 L 18.148438 15.8125 C 18.082031 15.890625 18.011719 15.941406 17.945312 15.964844 L 17.816406 16.011719 L 17.816406 17.988281 L 17.878906 18.046875 C 17.960938 18.121094 18.675781 18.75 20.179688 19.523438 L 20.265625 19.566406 C 21.953125 20.425781 24.058594 21.496094 24.496094 21.898438 C 24.789062 22.167969 25.242188 22.785156 25.636719 23.722656 C 25.734375 23.949219 25.8125 24.140625 25.871094 24.328125 C 25.933594 24.492188 25.992188 24.683594 26.054688 24.921875 C 26.128906 25.191406 26.183594 25.441406 26.234375 25.699219 C 26.308594 26.125 26.054688 26.523438 25.640625 26.628906 C 22.542969 27.417969 18.867188 27.832031 15.003906 27.832031 C 11.132812 27.832031 7.449219 27.414062 4.355469 26.625 C 3.945312 26.519531 3.695312 26.121094 3.765625 25.699219 Z M 3.765625 25.699219 "/>
</g>
</svg>
